<?xml version="1.0" encoding="iso-8859-1"?>
<!-- Generator: Adobe Illustrator 19.0.0, SVG Export Plug-In . SVG Version: 6.00 Build 0)  -->
<svg version="1.1" id="Capa_1" xmlns="http://www.w3.org/2000/svg" xmlns:xlink="http://www.w3.org/1999/xlink" x="0px" y="0px"
	 viewBox="0 0 512 512" style="enable-background:new 0 0 512 512;" xml:space="preserve">
<g>
	<g>
		<g>
			<circle cx="245.333" cy="74.667" r="10.667"/>
			<path d="M504.272,64.467c-66.691-19.053-169.619-21.413-195.79-21.703c-7.18-12.437-17.435-23.109-30.085-30.666
				c-26.833-16.04-59.292-16.165-89-0.167c-23.083,12.394-37.542,37.787-39.708,69.638c-1.271,18.727-23.208,52.452-80.938,90.927
				c-67.958,45.307-68.75,92.219-68.75,94.198c0,53.765,22.146,82.199,42.667,97.01v9.645c0,19.814,13.654,36.375,32,41.146v86.839
				c0,5.895,4.771,10.665,10.667,10.665h32c5.896,0,10.667-4.77,10.667-10.665c0-5.895-4.771-10.665-10.667-10.665H96.001v-76.174
				c18.346-4.772,32-21.332,32-41.146v-10.665c0,19.814,13.654,36.375,32,41.146v86.839c0,5.895,4.771,10.665,10.667,10.665h32
				c5.896,0,10.667-4.77,10.667-10.665c0-5.895-4.771-10.665-10.667-10.665h-21.333V403.83c18.346-4.772,32-21.332,32-41.146v-4.333
				c77.917-45.682,84.708-189.25,85.292-216.476c10.056-11.374,16.691-25.044,19.616-39.714
				c17.424-10.402,106.26-16.779,183.092-16.779c5.313,0,9.833-3.916,10.563-9.186C512.626,70.925,509.376,65.925,504.272,64.467z
				 M280.422,130.094c-0.013,0.013-0.033,0.017-0.046,0.031c-12.125,12.396-28.354,19.208-45.708,19.208
				c-5.896,0-10.667,4.771-10.667,10.667s4.771,10.667,10.667,10.667c14.927,0,29.065-4.159,41.69-11.293
				c-3.202,46.102-17.171,152.431-78.461,183.085c-3.604,1.813-5.896,5.5-5.896,9.542v10.667c0,11.771-9.563,21.333-21.333,21.333
				s-21.333-9.563-21.333-21.333v-1.572c9.712-2.322,24.719-8.126,39.521-22.866c4.188-4.167,4.188-10.917,0.042-15.083
				c-4.167-4.208-10.917-4.167-15.083-0.042c-17.562,17.5-34.375,18.208-35.271,18.229h-21.208c-5.896,0-10.667,4.771-10.667,10.667
				v21.333c0,11.771-9.563,21.333-21.333,21.333s-21.333-9.563-21.333-21.333v-15.313c0-3.667-1.875-7.063-4.979-9.021
				c-25-15.75-37.688-43.458-37.688-82.208c0-0.375,1.604-38.146,59.25-76.583c55.313-36.875,88.271-75.958,90.396-107.229
				c1.646-24.396,12.042-43.458,28.5-52.313c11.563-6.208,23.604-9.313,35.292-9.313c11.479,0,22.646,3,32.688,9
				c19.25,11.5,31.208,32.583,31.208,54.979C298.668,102.154,292.196,118.053,280.422,130.094z M319.6,79.273
				c-0.371-5.108-1.07-10.156-2.333-15.056c16.022,0.353,43.218,1.283,73.63,3.762C363.263,70.234,337.155,73.809,319.6,79.273z"/>
		</g>
	</g>
</g>
<g>
</g>
<g>
</g>
<g>
</g>
<g>
</g>
<g>
</g>
<g>
</g>
<g>
</g>
<g>
</g>
<g>
</g>
<g>
</g>
<g>
</g>
<g>
</g>
<g>
</g>
<g>
</g>
<g>
</g>
</svg>
